<?xml version="1.0" encoding="UTF-8"?>
<svg id="ronne.dev" xmlns="http://www.w3.org/2000/svg" viewBox="0 0 495.49 388.5">
  <defs>
    <style>
      .cls-1 {
        stroke: #000;
        stroke-miterlimit: 10;
        stroke-width: 5px;
      }
    </style>
  </defs>
  <path d="M495.49,374.25c0,3.89-1.41,7.27-4.24,10.04-2.83,2.8-6.21,4.2-10.13,4.2H206.84c-31.89,0-59.16-11.18-81.72-33.55-22.57-22.38-33.83-49.38-33.83-81.04v-98.71c16.33-12.48,35.17-18.71,56.58-18.71h28.09c10.78,0,21.09,1.74,30.88,5.24v112.19c0,28.19,4.76,48.44,14.21,60.73,12.86,16.78,37.02,25.18,72.41,25.18h187.65c3.93,0,7.3,1.4,10.13,4.2,2.83,2.77,4.24,6.18,4.24,10.24"/>
  <path d="M206.84,14.25V79.5c-9.95-2.41-20.23-3.63-30.88-3.63h-28.09c-20.57,0-39.45,4.16-56.58,12.52V14.25c0-3.93,1.41-7.28,4.24-10.07,2.83-2.77,6.21-4.17,10.15-4.17h86.6c4.09,0,7.52,1.4,10.34,4.17,2.8,2.8,4.21,6.15,4.21,10.07"/>
  <path class="cls-1" d="M294.35,164.99c-11.3-21.71-27.28-38.82-48.04-51.37-11.61-7.03-23.76-12.09-36.46-15.17-9.95-2.41-20.23-3.63-30.88-3.63h-28.09c-20.57,0-39.45,4.17-56.58,12.51-13.63,6.67-26.21,15.98-37.65,27.91v-4.68c0-8.52-2.77-15.95-8.29-22.32-5.52-6.27-12.46-10.29-20.81-12.09-2.24-.91-4.57-1.34-6.94-1.34-5.06,0-9.36,1.74-12.86,5.21-3.5,3.44-5.24,7.7-5.24,12.73s1.74,9.13,5.24,12.6,7.79,5.21,12.86,5.21v232.72c0,5.06,1.75,9.3,5.25,12.76,3.5,3.47,7.74,5.2,12.68,5.2s9.36-1.74,12.86-5.2c3.5-3.47,5.25-7.7,5.25-12.76V224.2c0-25.85,9.17-47.86,27.59-66.09,3.25-3.22,6.6-6.15,10.08-8.81,16.33-12.48,35.17-18.72,56.58-18.72h28.09c10.78,0,21.09,1.74,30.88,5.24,6.08,2.17,11.97,5,17.68,8.52,14.98,9.05,26.55,21.41,34.69,37.08,2.36,4.35,5.93,7.27,10.65,8.71,4.73,1.59,9.31,1.19,13.69-1.16,4.42-2.25,7.4-5.72,8.96-10.41,1.48-4.69,1.07-9.23-1.16-13.58"/>
</svg>