<?xml version="1.0" encoding="UTF-8"?>
<svg id="ronne.dev" data-name="ronne.dev  logo" xmlns="http://www.w3.org/2000/svg" viewBox="0 0 523.02 394.9">
  <defs>
    <linearGradient id="0" x1="0.83" y1="0.88" x2="0.17" y2="0.12">
      <stop offset="0%" stop-color="#915cec"/>
      <stop offset="2.67%" stop-color="#915cec"/>
      <stop offset="5.33%" stop-color="#915cec"/>
      <stop offset="8%" stop-color="#915cec"/>
      <stop offset="10.67%" stop-color="#915cec"/>
      <stop offset="13.33%" stop-color="#915cec"/>
      <stop offset="16%" stop-color="#905cec"/>
      <stop offset="18.67%" stop-color="#905ceb"/>
      <stop offset="21.33%" stop-color="#905ceb"/>
      <stop offset="24%" stop-color="#905ceb"/>
      <stop offset="26.67%" stop-color="#905ceb"/>
      <stop offset="32%" stop-color="#905ceb"/>
      <stop offset="34.25%" stop-color="rgba(144, 93, 236, 0.99)"/>
      <stop offset="36.5%" stop-color="rgba(145, 94, 237, 0.99)"/>
      <stop offset="38.75%" stop-color="rgba(145, 95, 237, 0.98)"/>
      <stop offset="41%" stop-color="rgba(145, 96, 238, 0.97)"/>
      <stop offset="43.25%" stop-color="rgba(146, 97, 239, 0.96)"/>
      <stop offset="45.5%" stop-color="rgba(146, 97, 240, 0.96)"/>
      <stop offset="47.75%" stop-color="rgba(146, 98, 240, 0.95)"/>
      <stop offset="50%" stop-color="rgba(147, 99, 241, 0.94)"/>
      <stop offset="52.25%" stop-color="rgba(147, 100, 242, 0.93)"/>
      <stop offset="54.5%" stop-color="rgba(147, 101, 243, 0.93)"/>
      <stop offset="59%" stop-color="rgba(148, 103, 244, 0.91)"/>
      <stop offset="62.17%" stop-color="rgba(149, 104, 244, 0.92)"/>
      <stop offset="65.33%" stop-color="rgba(151, 105, 245, 0.93)"/>
      <stop offset="68.5%" stop-color="rgba(152, 106, 245, 0.93)"/>
      <stop offset="71.67%" stop-color="rgba(154, 107, 245, 0.94)"/>
      <stop offset="74.83%" stop-color="rgba(155, 108, 245, 0.95)"/>
      <stop offset="78%" stop-color="rgba(156, 109, 246, 0.96)"/>
      <stop offset="81.17%" stop-color="rgba(158, 111, 246, 0.96)"/>
      <stop offset="84.33%" stop-color="rgba(159, 112, 246, 0.97)"/>
      <stop offset="87.5%" stop-color="rgba(160, 113, 246, 0.98)"/>
      <stop offset="90.67%" stop-color="rgba(161, 114, 247, 0.99)"/>
      <stop offset="97%" stop-color="#a474f7"/>
    </linearGradient>
  </defs>
  <g>
    <!-- <path class="cls-1" d="M25.28,0c-4.14,0-7.73,1.49-10.68,4.47-2.98,2.98-4.47,6.54-4.47,10.68V304.36c0,33.63,11.88,62.38,35.67,86.17,23.79,23.79,52.5,35.67,86.16,35.67h104.94c13.27-17.22,19.9-37.09,19.9-59.66v-29.62c0-11.36-1.85-22.24-5.57-32.56h-119.28c-29.97,0-51.5-5.02-64.57-14.99-17.84-13.56-26.77-39.04-26.77-76.36V15.15c0-4.14-1.49-7.7-4.47-10.68C33.21,1.49,29.58,0,25.28,0"/>
    <path class="cls-1" d="M379.75,304.36h-69.37c2.56,10.49,3.85,21.33,3.85,32.56v29.62c0,21.69-4.43,41.6-13.31,59.66h78.82c4.18,0,7.74-1.49,10.71-4.47,2.95-2.98,4.44-6.54,4.44-10.71v-91.31c0-4.31-1.49-7.93-4.44-10.91-2.98-2.95-6.54-4.43-10.71-4.43"/>
    <path class="cls-1" d="M229.95,215.25c23.08,11.91,41.27,28.77,54.61,50.65,7.48,12.24,12.85,25.05,16.12,38.45,2.56,10.49,3.85,21.33,3.85,32.56v29.62c0,21.69-4.44,41.6-13.3,59.66-7.09,14.37-16.99,27.64-29.68,39.71h4.98c9.06,0,16.96,2.92,23.73,8.74,6.67,5.82,10.94,13.14,12.85,21.95,.97,2.36,1.43,4.82,1.43,7.32,0,5.34-1.85,9.87-5.54,13.56-3.66,3.69-8.19,5.53-13.53,5.53-5.24,0-9.71-1.84-13.4-5.53-3.69-3.69-5.54-8.22-5.54-13.56H19.1c-5.37,0-9.88-1.85-13.56-5.54C1.85,494.69,0,490.23,0,485.01c0-5.37,1.85-9.87,5.53-13.56,3.69-3.69,8.19-5.54,13.56-5.54H166.99c27.48,0,50.88-9.67,70.27-29.09,3.43-3.43,6.54-6.96,9.36-10.62,13.27-17.22,19.91-37.09,19.91-59.66v-29.62c0-11.36-1.85-22.24-5.57-32.56-2.3-6.41-5.31-12.62-9.06-18.64-9.62-15.8-22.76-28-39.43-36.58-4.63-2.49-7.73-6.25-9.26-11.23-1.69-4.99-1.26-9.81,1.23-14.44,2.4-4.66,6.08-7.8,11.07-9.45,4.99-1.56,9.81-1.13,14.44,1.23"/>
   -->
    <path class="cls-1" fill="#000" d="M523.02,369.62c0,4.14-1.49,7.73-4.47,10.68-2.98,2.98-6.54,4.47-10.68,4.47H218.65c-33.63,0-62.38-11.88-86.17-35.67-23.79-23.79-35.67-52.5-35.67-86.16v-104.94c17.22-13.27,37.09-19.9,59.66-19.9h29.62c11.36,0,22.24,1.85,32.56,5.57v119.28c0,29.97,5.02,51.5,14.99,64.57,13.56,17.84,39.04,26.77,76.36,26.77h197.87c4.14,0,7.7,1.49,10.68,4.47,2.98,2.95,4.47,6.57,4.47,10.88"/>
    <path class="cls-1" fill="#000" d="M218.65,15.15V84.52c-10.49-2.56-21.33-3.85-32.56-3.85h-29.62c-21.69,0-41.6,4.43-59.66,13.31V15.15c0-4.18,1.49-7.74,4.47-10.71,2.98-2.95,6.54-4.44,10.71-4.44h91.31c4.31,0,7.93,1.49,10.91,4.44,2.95,2.98,4.43,6.54,4.43,10.71"/>
    <path class="cls-1" fill="#000" d="M307.76,164.95c-11.91-23.08-28.77-41.27-50.65-54.61-12.24-7.48-25.05-12.85-38.45-16.12-10.49-2.56-21.33-3.85-32.56-3.85h-29.62c-21.69,0-41.6,4.44-59.66,13.3-14.37,7.09-27.64,16.99-39.71,29.68v-4.98c0-9.06-2.92-16.96-8.74-23.73-5.82-6.67-13.14-10.94-21.95-12.85-2.36-.97-4.82-1.43-7.32-1.43-5.34,0-9.87,1.85-13.56,5.54-3.69,3.66-5.53,8.19-5.53,13.53s1.84,9.71,5.53,13.4c3.69,3.69,8.22,5.54,13.56,5.54v247.42c0,5.37,1.85,9.88,5.54,13.56,3.69,3.69,8.16,5.53,13.37,5.53s9.87-1.85,13.56-5.53c3.69-3.69,5.54-8.19,5.54-13.56V227.91c0-27.48,9.67-50.88,29.09-70.27,3.43-3.43,6.96-6.54,10.62-9.36,17.22-13.27,37.09-19.91,59.66-19.91h29.62c11.36,0,22.24,1.85,32.56,5.57,6.41,2.3,12.62,5.31,18.64,9.06,15.8,9.62,28,22.76,36.58,39.43,2.49,4.63,6.25,7.73,11.23,9.26,4.99,1.69,9.81,1.26,14.44-1.23,4.66-2.4,7.8-6.08,9.45-11.07,1.56-4.99,1.13-9.81-1.23-14.44"/>
  </g>
</svg>
